<?xml version="1.0" encoding="UTF-8"?>
<svg id="Layer_1" data-name="Layer 1" xmlns="http://www.w3.org/2000/svg" viewBox="0 0 298.61 101.98">
  <g>
    <path d="M14.1,19.56l7.92-7.92c1.54-1.54,4.18-.45,4.18,1.73v74.89c0,2.18-2.64,3.28-4.18,1.73l-8.02-8.02c-.46-.46-.72-1.08-.72-1.73.02-6.68.11-44.5.11-58.97,0-.64.26-1.26.71-1.71Z"/>
    <path d="M30.74,19.64l18.97-10.02c1.63-.86,3.6.32,3.6,2.17v78.42c0,1.83-1.92,3.01-3.55,2.19l-18.96-9.56c-.83-.42-1.35-1.26-1.35-2.19V21.8c0-.91.5-1.74,1.3-2.16Z"/>
    <path d="M57.83,19.64l18.97-10.02c1.63-.86,3.6.32,3.6,2.17v78.42c0,1.83-1.92,3.01-3.55,2.19l-18.96-9.56c-.83-.42-1.35-1.26-1.35-2.19V21.8c0-.91.5-1.74,1.3-2.16Z"/>
  </g>
  <g>
    <path d="M114.14,30.37c-2.43-1.43-5.19-2.15-8.26-2.15s-5.85.72-8.29,2.15c-2.44,1.43-4.37,3.5-5.78,6.2-1.41,2.7-2.12,5.95-2.12,9.75s.71,7.02,2.12,9.71c1.41,2.69,3.34,4.76,5.78,6.19s5.21,2.15,8.29,2.15,5.83-.71,8.26-2.14,4.36-3.49,5.77-6.19c1.41-2.7,2.12-5.94,2.12-9.72s-.71-7.05-2.12-9.75c-1.41-2.7-3.33-4.77-5.77-6.2ZM114.41,53.09c-.84,1.85-1.99,3.25-3.46,4.21s-3.16,1.43-5.07,1.43-3.62-.48-5.1-1.44-2.64-2.36-3.49-4.21c-.84-1.84-1.26-4.1-1.26-6.76s.42-4.94,1.26-6.79c.84-1.85,2-3.26,3.49-4.22s3.18-1.44,5.1-1.44,3.6.48,5.07,1.43,2.63,2.36,3.46,4.21c.83,1.85,1.25,4.12,1.25,6.82s-.42,4.92-1.25,6.77Z"/>
    <path d="M143.82,38.71c-1.64-1.04-3.48-1.56-5.53-1.56-1.56,0-2.84.26-3.84.79s-1.79,1.15-2.37,1.88c-.58.73-1.03,1.4-1.35,2.03h-.4v-4.37h-6v36.3h6.14v-14.06h.26c.32.63.77,1.31,1.37,2.03s1.4,1.34,2.41,1.86c1.01.51,2.26.77,3.76.77,2.09,0,3.97-.53,5.61-1.6s2.94-2.61,3.89-4.64,1.42-4.5,1.42-7.4-.48-5.41-1.45-7.43c-.97-2.02-2.27-3.56-3.91-4.6ZM142.17,55.12c-.47,1.3-1.17,2.32-2.1,3.07-.93.75-2.08,1.12-3.45,1.12s-2.48-.36-3.42-1.07c-.94-.72-1.65-1.72-2.13-3.01-.48-1.29-.72-2.8-.72-4.51s.24-3.21.72-4.48,1.19-2.26,2.11-2.97,2.07-1.06,3.43-1.06,2.54.37,3.47,1.1c.93.73,1.63,1.74,2.09,3.03.46,1.28.7,2.75.7,4.38s-.24,3.11-.71,4.41Z"/>
    <path d="M170.88,40.34c-1.13-1.09-2.42-1.89-3.88-2.41-1.46-.52-2.99-.78-4.6-.78-2.52,0-4.71.58-6.58,1.74-1.87,1.16-3.31,2.76-4.32,4.81-1.02,2.05-1.52,4.44-1.52,7.16s.52,5.15,1.55,7.18c1.03,2.03,2.5,3.61,4.42,4.73,1.91,1.12,4.2,1.68,6.87,1.68,1.97,0,3.72-.3,5.26-.89,1.54-.59,2.82-1.42,3.84-2.48,1.02-1.06,1.75-2.3,2.17-3.72l-5.65-1.16c-.27.74-.67,1.37-1.2,1.88-.54.51-1.17.9-1.9,1.16-.73.26-1.55.39-2.45.39-1.35,0-2.54-.29-3.57-.87-1.02-.58-1.82-1.45-2.39-2.6-.51-1.03-.78-2.28-.83-3.73h18.39v-1.94c0-2.32-.32-4.31-.96-5.99-.64-1.68-1.52-3.06-2.65-4.15ZM158.99,42.93c.95-.64,2.09-.96,3.45-.96s2.48.32,3.39.95c.91.63,1.59,1.51,2.04,2.63.33.8.53,1.7.62,2.68h-12.38c.08-.99.31-1.91.71-2.75.5-1.06,1.22-1.91,2.16-2.55Z"/>
    <path d="M195.18,38.31c-1.35-.77-2.94-1.16-4.75-1.16-2.16,0-3.95.57-5.39,1.71-1.15.92-2.08,2.21-2.78,3.87l-.08-5.25h-5.81v26.42h6.14v-15.48c0-1.28.24-2.37.73-3.27.49-.91,1.16-1.6,2.01-2.07s1.82-.71,2.91-.71c1.61,0,2.87.5,3.78,1.51s1.37,2.39,1.37,4.16v15.86h6.14v-16.8c0-2.13-.37-3.93-1.12-5.41s-1.8-2.61-3.15-3.38Z"/>
    <polygon points="225.92 28.69 197.89 28.69 197.89 34.01 208.76 34.01 208.76 63.9 215.07 63.9 215.07 34.01 225.92 34.01 225.92 28.69"/>
    <path d="M254.52,37.48l-2.6,10.35c-.43,1.75-.86,3.64-1.31,5.67-.32,1.43-.63,2.96-.93,4.59-.32-1.64-.65-3.19-.99-4.63-.48-2.04-.93-3.92-1.36-5.64l-2.6-10.35h-5.86l-2.67,10.35c-.44,1.75-.91,3.64-1.39,5.68-.34,1.42-.66,2.95-.97,4.56-.31-1.66-.63-3.21-.96-4.64-.47-2.03-.91-3.9-1.3-5.6l-2.6-10.35h-6.47l7.87,26.42h6.22l3.1-10.78c.32-1.06.62-2.21.91-3.47.29-1.26.58-2.54.87-3.84.1-.44.2-.86.29-1.29.1.43.19.85.29,1.29.28,1.3.58,2.57.87,3.82.3,1.24.61,2.41.92,3.5l3.1,10.78h6.21l7.89-26.42h-6.52Z"/>
    <path d="M283.78,43.64c-1.03-2.06-2.49-3.65-4.38-4.79-1.89-1.13-4.13-1.7-6.71-1.7s-4.8.57-6.69,1.7c-1.89,1.13-3.35,2.73-4.38,4.79-1.03,2.06-1.55,4.45-1.55,7.2s.52,5.08,1.55,7.12c1.03,2.04,2.49,3.63,4.38,4.77,1.89,1.14,4.12,1.71,6.69,1.71s4.82-.57,6.71-1.71c1.89-1.14,3.35-2.73,4.38-4.77,1.03-2.04,1.55-4.41,1.55-7.12s-.52-5.14-1.55-7.2ZM278.4,55.18c-.46,1.31-1.17,2.35-2.13,3.12-.95.77-2.15,1.16-3.58,1.16s-2.62-.39-3.56-1.16c-.94-.77-1.64-1.81-2.1-3.12-.46-1.31-.7-2.76-.7-4.37s.23-3.11.7-4.41c.47-1.3,1.17-2.34,2.1-3.11.94-.77,2.12-1.16,3.56-1.16s2.63.39,3.58,1.16c.95.77,1.66,1.81,2.13,3.12.46,1.31.7,2.77.7,4.4s-.23,3.06-.7,4.37Z"/>
  </g>
</svg>